<mxfile host="65bd71144e">
    <diagram id="Jn37X4tZU5oWBCXcOeXk" name="Page-1">
        <mxGraphModel dx="910" dy="969" grid="1" gridSize="10" guides="1" tooltips="1" connect="1" arrows="1" fold="1" page="1" pageScale="1" pageWidth="850" pageHeight="1100" math="0" shadow="0">
            <root>
                <mxCell id="0"/>
                <mxCell id="1" parent="0"/>
                <mxCell id="2" value="Guest" style="whiteSpace=wrap;strokeWidth=2;fillColor=#ffcccc;strokeColor=#36393d;fontFamily=Verdana;fontStyle=1;fontSize=21;verticalAlign=top;" vertex="1" parent="1">
                    <mxGeometry x="578" y="407" width="150" height="160" as="geometry"/>
                </mxCell>
                <mxCell id="3" value="Hypervisor" style="whiteSpace=wrap;strokeWidth=2;fillColor=#cce5ff;strokeColor=#36393d;fontFamily=Verdana;fontStyle=1;fontSize=19;verticalAlign=top;" vertex="1" parent="1">
                    <mxGeometry x="128" y="407" width="150" height="160" as="geometry"/>
                </mxCell>
                <mxCell id="14" value="TCP/IP" style="whiteSpace=wrap;strokeWidth=2;fillColor=#fff2cc;strokeColor=#d6b656;fontFamily=Verdana;fontStyle=1;fontSize=21;verticalAlign=middle;" vertex="1" parent="1">
                    <mxGeometry x="588" y="460.5" width="130" height="42.5" as="geometry"/>
                </mxCell>
                <mxCell id="15" value="TCP forwarding" style="whiteSpace=wrap;strokeWidth=2;fillColor=#fff2cc;strokeColor=#d6b656;fontFamily=Verdana;fontStyle=1;fontSize=16;verticalAlign=middle;" vertex="1" parent="1">
                    <mxGeometry x="138" y="460.5" width="130" height="42.5" as="geometry"/>
                </mxCell>
                <mxCell id="16" value="network interface" style="whiteSpace=wrap;strokeWidth=2;fillColor=#f5f5f5;strokeColor=#666666;fontFamily=Verdana;fontStyle=1;fontSize=18;verticalAlign=middle;fontColor=#333333;dashed=1;" vertex="1" parent="1">
                    <mxGeometry x="588" y="517" width="130" height="42.5" as="geometry"/>
                </mxCell>
                <mxCell id="6" style="rounded=0;orthogonalLoop=1;jettySize=auto;html=1;strokeWidth=4;endArrow=block;endFill=1;startArrow=none;startFill=0;strokeColor=#FF0000;" edge="1" parent="1">
                    <mxGeometry relative="1" as="geometry">
                        <mxPoint x="528" y="547" as="sourcePoint"/>
                        <mxPoint x="588" y="537.75" as="targetPoint"/>
                        <Array as="points">
                            <mxPoint x="550" y="530"/>
                        </Array>
                    </mxGeometry>
                </mxCell>
                <mxCell id="18" style="rounded=0;orthogonalLoop=1;jettySize=auto;html=1;strokeWidth=4;endArrow=block;endFill=1;startArrow=block;startFill=1;" edge="1" parent="1">
                    <mxGeometry relative="1" as="geometry">
                        <mxPoint x="270" y="484.25" as="sourcePoint"/>
                        <mxPoint x="590" y="484" as="targetPoint"/>
                    </mxGeometry>
                </mxCell>
                <mxCell id="7" value="virtio-tcp" style="whiteSpace=wrap;strokeWidth=2;fillColor=#d5e8d4;strokeColor=#82b366;fontFamily=Verdana;fontStyle=1;fontSize=19;verticalAlign=middle;" vertex="1" parent="1">
                    <mxGeometry x="365" y="453" width="120" height="57.5" as="geometry"/>
                </mxCell>
                <mxCell id="20" value="&lt;font face=&quot;Verdana&quot;&gt;&lt;span style=&quot;font-size: 19px;&quot;&gt;&lt;b&gt;skip network interface layer!&lt;/b&gt;&lt;/span&gt;&lt;/font&gt;&lt;div style=&quot;&quot;&gt;&lt;/div&gt;" style="text;whiteSpace=wrap;html=1;fontSize=18;align=center;verticalAlign=middle;fontColor=#FF0000;" vertex="1" parent="1">
                    <mxGeometry x="380" y="550" width="170" height="50" as="geometry"/>
                </mxCell>
            </root>
        </mxGraphModel>
    </diagram>
</mxfile>